<svg xmlns="http://www.w3.org/2000/svg" xmlns:xlink="http://www.w3.org/1999/xlink" viewBox="0 0 500 500" width="500" height="500" preserveAspectRatio="xMidYMid meet" style="width: 100%; height: 100%; transform: translate3d(0px, 0px, 0px); content-visibility: visible;"><defs><clipPath id="__lottie_element_468"><rect width="500" height="500" x="0" y="0"></rect></clipPath></defs><g clip-path="url(#__lottie_element_468)"><g transform="matrix(1,0,0,1,172.3070068359375,31)" opacity="1" style="display: block;"><g opacity="1" transform="matrix(1,0,0,1,30.64999771118164,117.18000030517578)"><path stroke-linecap="butt" stroke-linejoin="miter" fill-opacity="0" stroke-miterlimit="4" stroke="rgb(0,0,0)" stroke-opacity="1" stroke-width="4" d=" M94.37000274658203,2 C94.37000274658203,2 94.37000274658203,161.57000732421875 94.37000274658203,161.57000732421875 C94.37000274658203,162.67381286621094 93.47380065917969,163.57000732421875 92.37000274658203,163.57000732421875 C92.37000274658203,163.57000732421875 2,163.57000732421875 2,163.57000732421875 C0.8962000012397766,163.57000732421875 0,162.67381286621094 0,161.57000732421875 C0,161.57000732421875 0,2 0,2 C0,0.8962000012397766 0.8962000012397766,0 2,0 C2,0 92.37000274658203,0 92.37000274658203,0 C93.47380065917969,0 94.37000274658203,0.8962000012397766 94.37000274658203,2z"></path></g><g opacity="1" transform="matrix(1,0,0,1,37.27000045776367,12.459999084472656)"><path stroke-linecap="butt" stroke-linejoin="miter" fill-opacity="0" stroke-miterlimit="4" stroke="rgb(0,0,0)" stroke-opacity="1" stroke-width="4" d=" M80.62999725341797,0 C80.62999725341797,0 80.62999725341797,169.42999267578125 80.62999725341797,169.42999267578125 C80.62999725341797,169.42999267578125 0,169.42999267578125 0,169.42999267578125 C0,169.42999267578125 0,0 0,0 C0,0 80.62999725341797,0 80.62999725341797,0z"></path></g><g opacity="1" transform="matrix(1,0,0,1,30.650001525878906,182.22000122070312)"><path stroke-linecap="butt" stroke-linejoin="miter" fill-opacity="0" stroke-miterlimit="4" stroke="rgb(0,0,0)" stroke-opacity="1" stroke-width="4" d=" M7.179999828338623,0 C7.179999828338623,0 87.58999633789062,0 87.58999633789062,0 C87.58999633789062,0 91.58999633789062,18.09000015258789 91.58999633789062,18.09000015258789 C91.58999633789062,18.09000015258789 2.180000066757202,18.09000015258789 2.180000066757202,18.09000015258789 C2.180000066757202,18.09000015258789 7.179999828338623,0 7.179999828338623,0z"></path></g><g opacity="1" transform="matrix(1,0,0,1,16.579998016357422,0)"><path stroke-linecap="butt" stroke-linejoin="miter" fill-opacity="0" stroke-miterlimit="4" stroke="rgb(0,0,0)" stroke-opacity="1" stroke-width="4" d=" M122.56999969482422,5 C122.56999969482422,5 122.56999969482422,7.149999618530273 122.56999969482422,7.149999618530273 C122.56999969482422,9.909499168395996 120.32949829101562,12.149999618530273 117.56999969482422,12.149999618530273 C117.56999969482422,12.149999618530273 5,12.149999618530273 5,12.149999618530273 C2.240499973297119,12.149999618530273 0,9.909499168395996 0,7.149999618530273 C0,7.149999618530273 0,5 0,5 C0,2.240499973297119 2.240499973297119,0 5,0 C5,0 117.56999969482422,0 117.56999969482422,0 C120.32949829101562,0 122.56999969482422,2.240499973297119 122.56999969482422,5z"></path></g><g opacity="1" transform="matrix(1,0,0,1,16.490001678466797,280.75)"><path stroke-linecap="butt" stroke-linejoin="miter" fill-opacity="0" stroke-miterlimit="4" stroke="rgb(0,0,0)" stroke-opacity="1" stroke-width="4" d=" M122.68000030517578,2 C122.68000030517578,2 122.68000030517578,11.09000015258789 122.68000030517578,11.09000015258789 C122.68000030517578,12.19379997253418 121.78379821777344,13.09000015258789 120.68000030517578,13.09000015258789 C120.68000030517578,13.09000015258789 2,13.09000015258789 2,13.09000015258789 C0.8962000012397766,13.09000015258789 0,12.19379997253418 0,11.09000015258789 C0,11.09000015258789 0,2 0,2 C0,0.8962000012397766 0.8962000012397766,0 2,0 C2,0 120.68000030517578,0 120.68000030517578,0 C121.78379821777344,0 122.68000030517578,0.8962000012397766 122.68000030517578,2z"></path></g><g opacity="1" transform="matrix(1,0,0,1,-6.653999328613281,302.42999267578125)"><path stroke-linecap="butt" stroke-linejoin="miter" fill-opacity="0" stroke-miterlimit="4" stroke="rgb(0,0,0)" stroke-opacity="1" stroke-width="4" d=" M168.6925048828125,2 C168.6925048828125,2 168.6925048828125,4.260000228881836 168.6925048828125,4.260000228881836 C168.6925048828125,5.363800048828125 167.79629516601562,6.260000228881836 166.6925048828125,6.260000228881836 C166.6925048828125,6.260000228881836 1.9995040893554688,6.260000228881836 1.9995040893554688,6.260000228881836 C0.8957040905952454,6.260000228881836 -0.00049591064453125,5.363800048828125 -0.00049591064453125,4.260000228881836 C-0.00049591064453125,4.260000228881836 -0.00049591064453125,2 -0.00049591064453125,2 C-0.00049591064453125,0.8962000012397766 0.8957040905952454,0 1.9995040893554688,0 C1.9995040893554688,0 166.6925048828125,0 166.6925048828125,0 C167.79629516601562,0 168.6925048828125,0.8962000012397766 168.6925048828125,2z"></path></g><g opacity="1" transform="matrix(1,0,0,1,26.119998931884766,307.8999938964844)"><path stroke-linecap="butt" stroke-linejoin="miter" fill-opacity="0" stroke-miterlimit="4" stroke="rgb(0,0,0)" stroke-opacity="1" stroke-width="4" d=" M103.54000091552734,2 C103.54000091552734,2 103.54000091552734,11.430000305175781 103.54000091552734,11.430000305175781 C103.54000091552734,12.53499984741211 102.6449966430664,13.430000305175781 101.54000091552734,13.430000305175781 C101.54000091552734,13.430000305175781 2,13.430000305175781 2,13.430000305175781 C0.8949999809265137,13.430000305175781 0,12.53499984741211 0,11.430000305175781 C0,11.430000305175781 0,2 0,2"></path></g><g opacity="1" transform="matrix(1,0,0,1,24.25400161743164,293.8399963378906)"><path stroke-linecap="butt" stroke-linejoin="miter" fill-opacity="0" stroke-miterlimit="4" stroke="rgb(0,0,0)" stroke-opacity="1" stroke-width="4" d=" M107.26399993896484,2 C107.26399993896484,2 107.26399993896484,6.590000152587891 107.26399993896484,6.590000152587891 C107.26399993896484,7.69379997253418 106.3677978515625,8.59000015258789 105.26399993896484,8.59000015258789 C105.26399993896484,8.59000015258789 2,8.59000015258789 2,8.59000015258789 C0.8962000012397766,8.59000015258789 0,7.69379997253418 0,6.590000152587891 C0,6.590000152587891 0,2 0,2 C0,0.8962000012397766 0.8962000012397766,0 2,0 C2,0 105.26399993896484,0 105.26399993896484,0 C106.3677978515625,0 107.26399993896484,0.8962000012397766 107.26399993896484,2z"></path></g><g opacity="1" transform="matrix(1,0,0,1,34.54999923706055,201.30999755859375)"><path fill="rgb(57,34,14)" fill-opacity="1" d=" M86.12999725341797,2 C86.12999725341797,2 86.12999725341797,76.44000244140625 86.12999725341797,76.44000244140625 C86.12999725341797,77.5438003540039 85.23379516601562,78.44000244140625 84.12999725341797,78.44000244140625 C84.12999725341797,78.44000244140625 2,78.44000244140625 2,78.44000244140625 C0.8962000012397766,78.44000244140625 0,77.5438003540039 0,76.44000244140625 C0,76.44000244140625 0,2 0,2 C0,0.8962000012397766 0.8962000012397766,0 2,0 C2,0 84.12999725341797,0 84.12999725341797,0 C85.23379516601562,0 86.12999725341797,0.8962000012397766 86.12999725341797,2z"></path></g></g><g transform="matrix(1,0,0,1,181.552001953125,328.8999938964844)" opacity="1" style="display: block;"><g opacity="1" transform="matrix(1,0,0,1,0,0)"><path stroke-linecap="butt" stroke-linejoin="miter" fill-opacity="0" stroke-miterlimit="4" stroke="rgb(0,0,0)" stroke-opacity="1" stroke-width="4" d=" M136.89599609375,12 C136.89599609375,12 136.89599609375,128.10000610351562 136.89599609375,128.10000610351562 C136.89599609375,134.7270050048828 131.5229949951172,140.10000610351562 124.89600372314453,140.10000610351562 C124.89600372314453,140.10000610351562 12,140.10000610351562 12,140.10000610351562 C5.373000144958496,140.10000610351562 0,134.7270050048828 0,128.10000610351562 C0,128.10000610351562 0,12 0,12"></path></g></g><g transform="matrix(0.9300000071525574,0,0,0.9300000071525574,186.34335327148438,334.37615966796875)" opacity="1" style="display: block;"><g opacity="1" transform="matrix(1,0,0,1,0,0)"><path fill="rgb(57,34,14)" fill-opacity="1" d=" M136.89599609375,99.85800170898438 C136.89599609375,99.85800170898438 136.89599609375,128.10000610351562 136.89599609375,128.10000610351562 C136.89599609375,134.7270050048828 131.5229949951172,140.10000610351562 124.89600372314453,140.10000610351562 C124.89600372314453,140.10000610351562 12,140.10000610351562 12,140.10000610351562 C5.373000144958496,140.10000610351562 0,134.7270050048828 0,128.10000610351562 C0,128.10000610351562 0,99.85800170898438 0,99.85800170898438 C0,99.85800170898438 0,72.71399688720703 0,72.71399688720703 C0,72.71399688720703 8.157999992370605,73.1219711303711 8.157999992370605,73.1219711303711 C8.157999992370605,73.1219711303711 13.850000381469727,72.71399688720703 13.850000381469727,72.71399688720703 C13.850000381469727,72.71399688720703 18.95199966430664,72.71399688720703 18.95199966430664,72.71399688720703 C18.95199966430664,72.71399688720703 23.66200065612793,73.1219711303711 23.66200065612793,73.1219711303711 C23.66200065612793,73.1219711303711 32.65599822998047,72.71399688720703 32.65599822998047,72.71399688720703 C32.65599822998047,72.71399688720703 42.46699905395508,72.71399688720703 42.46699905395508,72.71399688720703 C42.46699905395508,72.71399688720703 47.58399963378906,72.71399688720703 47.58399963378906,72.71399688720703 C47.58399963378906,72.71399688720703 53.91400146484375,73.1219711303711 53.91400146484375,73.1219711303711 C53.91400146484375,73.1219711303711 62.90800094604492,72.71399688720703 62.90800094604492,72.71399688720703 C62.90800094604492,72.71399688720703 65.96399688720703,72.71399688720703 65.96399688720703,72.71399688720703 C65.96399688720703,72.71399688720703 73.12899780273438,73.1219711303711 73.12899780273438,73.1219711303711 C73.12899780273438,73.1219711303711 83.3489990234375,72.71399688720703 83.3489990234375,72.71399688720703 C83.3489990234375,72.71399688720703 90.86100006103516,72.71399688720703 90.86100006103516,72.71399688720703 C90.86100006103516,72.71399688720703 97.65799713134766,73.1219711303711 97.65799713134766,73.1219711303711 C97.65699768066406,73.1219711303711 107.87799835205078,72.71399688720703 107.87799835205078,72.71399688720703 C107.87799835205078,72.71399688720703 116.87200164794922,72.71399688720703 116.87200164794922,72.71399688720703 C116.87200164794922,72.71399688720703 121.00900268554688,73.1219711303711 121.00900268554688,73.1219711303711 C121.00900268554688,73.1219711303711 125.0479965209961,72.71399688720703 125.0479965209961,72.71399688720703 C125.0479965209961,72.71399688720703 129.0290069580078,73.1219711303711 129.0290069580078,73.1219711303711 C129.0290069580078,73.1219711303711 136.89599609375,72.71399688720703 136.89599609375,72.71399688720703"></path></g></g><g transform="matrix(1,0,0,1,311.447998046875,355.95001220703125)" opacity="1" style="display: block;"><g opacity="1" transform="matrix(1,0,0,1,0,0)"><path stroke-linecap="butt" stroke-linejoin="miter" fill-opacity="0" stroke-miterlimit="4" stroke="rgb(0,0,0)" stroke-opacity="1" stroke-width="3" d=" M8.479000091552734,0 C8.479000091552734,0 32.87099838256836,0 32.87099838256836,0 C38.77000045776367,0 43.551998138427734,3.365000009536743 43.551998138427734,7.517000198364258 C43.551998138427734,7.517000198364258 43.551998138427734,40.928001403808594 43.551998138427734,57.632999420166016 C43.551998138427734,73.12699890136719 6.552000045776367,76.05000305175781 6.552000045776367,76.05000305175781"></path></g></g><g transform="matrix(0.800000011920929,0,0,0.800000011920929,313.7801818847656,363.75)" opacity="1" style="display: block;"><g opacity="1" transform="matrix(1,0,0,1,0,0)"><path stroke-linecap="butt" stroke-linejoin="miter" fill-opacity="0" stroke-miterlimit="4" stroke="rgb(0,0,0)" stroke-opacity="1" stroke-width="4" d=" M8.479000091552734,0 C8.479000091552734,0 32.87099838256836,0 32.87099838256836,0 C38.77000045776367,0 43.551998138427734,3.365000009536743 43.551998138427734,7.517000198364258 C43.551998138427734,7.517000198364258 43.551998138427734,40.928001403808594 43.551998138427734,57.632999420166016 C43.551998138427734,73.12699890136719 6.552000045776367,76.05000305175781 6.552000045776367,76.05000305175781"></path></g></g><g transform="matrix(1,0,0,1,250.96400451660156,417.54498291015625)" opacity="1" style="display: block;"><g opacity="1" transform="matrix(0.625,0,0,0.625,2.8761956691741943,-38.53229522705078)"><path fill="rgb(57,34,14)" fill-opacity="1" d=" M0,-7.1479997634887695 C0,-7.1479997634887695 -7.629878044128418,4.008440017700195 -3.9830000400543213,8.831999778747559 C-2.331423044204712,11.079000473022461 1.9173259735107422,12.202500343322754 3.9609999656677246,8.831999778747559 C7.8719329833984375,4.0114359855651855 0,-7.1479997634887695 0,-7.1479997634887695 C0,-7.1479997634887695 0,-7.1479997634887695 0,-7.1479997634887695z"></path></g><g opacity="1" transform="matrix(0.625,0,0,0.625,2.8858749866485596,-61.25050354003906)"><path fill="rgb(57,34,14)" fill-opacity="1" d=" M0,-7.1479997634887695 C0,-7.1479997634887695 -10.909000396728516,-6.1479997634887695 -3.9830000400543213,-6.1479997634887695 C-1.7120000123977661,-6.1479997634887695 1.7869999408721924,-6.1479997634887695 3.9609999656677246,-6.1479997634887695 C11.005000114440918,-6.1479997634887695 0,-7.1479997634887695 0,-7.1479997634887695 C0,-7.1479997634887695 0,-7.1479997634887695 0,-7.1479997634887695z"></path></g></g><g transform="matrix(1,0,0,1,219.96400451660156,417.54498291015625)" opacity="1" style="display: block;"><g opacity="1" transform="matrix(0.625,0,0,0.625,2.8858749866485596,-61.25050354003906)"><path fill="rgb(57,34,14)" fill-opacity="1" d=" M0,-7.1479997634887695 C0,-7.1479997634887695 -10.909000396728516,-6.1479997634887695 -3.9830000400543213,-6.1479997634887695 C-1.7120000123977661,-6.1479997634887695 1.7869999408721924,-6.1479997634887695 3.9609999656677246,-6.1479997634887695 C11.005000114440918,-6.1479997634887695 0,-7.1479997634887695 0,-7.1479997634887695 C0,-7.1479997634887695 0,-7.1479997634887695 0,-7.1479997634887695z"></path></g><g opacity="1" transform="matrix(0.625,0,0,0.625,2.8858749866485596,-61.25050354003906)"><path fill="rgb(57,34,14)" fill-opacity="1" d=" M0,-7.1479997634887695 C0,-7.1479997634887695 -10.909000396728516,-6.1479997634887695 -3.9830000400543213,-6.1479997634887695 C-1.7120000123977661,-6.1479997634887695 1.7869999408721924,-6.1479997634887695 3.9609999656677246,-6.1479997634887695 C11.005000114440918,-6.1479997634887695 0,-7.1479997634887695 0,-7.1479997634887695 C0,-7.1479997634887695 0,-7.1479997634887695 0,-7.1479997634887695z"></path></g></g><g transform="matrix(1,0,0,1,279.9640197753906,417.54498291015625)" opacity="1" style="display: block;"><g opacity="1" transform="matrix(0.625,0,0,0.625,2.8858749866485596,-61.25050354003906)"><path fill="rgb(57,34,14)" fill-opacity="1" d=" M0,-7.1479997634887695 C0,-7.1479997634887695 -10.909000396728516,-6.1479997634887695 -3.9830000400543213,-6.1479997634887695 C-1.7120000123977661,-6.1479997634887695 1.7869999408721924,-6.1479997634887695 3.9609999656677246,-6.1479997634887695 C11.005000114440918,-6.1479997634887695 0,-7.1479997634887695 0,-7.1479997634887695 C0,-7.1479997634887695 0,-7.1479997634887695 0,-7.1479997634887695z"></path></g><g opacity="1" transform="matrix(0.625,0,0,0.625,2.8858749866485596,-61.25050354003906)"><path fill="rgb(57,34,14)" fill-opacity="1" d=" M0,-7.1479997634887695 C0,-7.1479997634887695 -10.909000396728516,-6.1479997634887695 -3.9830000400543213,-6.1479997634887695 C-1.7120000123977661,-6.1479997634887695 1.7869999408721924,-6.1479997634887695 3.9609999656677246,-6.1479997634887695 C11.005000114440918,-6.1479997634887695 0,-7.1479997634887695 0,-7.1479997634887695 C0,-7.1479997634887695 0,-7.1479997634887695 0,-7.1479997634887695z"></path></g></g><g transform="matrix(1,0,0,1,263.9640197753906,417.54498291015625)" opacity="1" style="display: block;"><g opacity="1" transform="matrix(0.625,0,0,0.625,2.8858749866485596,-61.25050354003906)"><path fill="rgb(57,34,14)" fill-opacity="1" d=" M0,-7.1479997634887695 C0,-7.1479997634887695 -10.909000396728516,-6.1479997634887695 -3.9830000400543213,-6.1479997634887695 C-1.7120000123977661,-6.1479997634887695 1.7869999408721924,-6.1479997634887695 3.9609999656677246,-6.1479997634887695 C11.005000114440918,-6.1479997634887695 0,-7.1479997634887695 0,-7.1479997634887695 C0,-7.1479997634887695 0,-7.1479997634887695 0,-7.1479997634887695z"></path></g><g opacity="1" transform="matrix(0.625,0,0,0.625,2.8858749866485596,-61.25050354003906)"><path fill="rgb(57,34,14)" fill-opacity="1" d=" M0,-7.1479997634887695 C0,-7.1479997634887695 -10.909000396728516,-6.1479997634887695 -3.9830000400543213,-6.1479997634887695 C-1.7120000123977661,-6.1479997634887695 1.7869999408721924,-6.1479997634887695 3.9609999656677246,-6.1479997634887695 C11.005000114440918,-6.1479997634887695 0,-7.1479997634887695 0,-7.1479997634887695 C0,-7.1479997634887695 0,-7.1479997634887695 0,-7.1479997634887695z"></path></g></g></g></svg>